<svg width="580" height="400" xmlns="http://www.w3.org/2000/svg">
    <g>
        <path fill="#fff" stroke="#000" stroke-width="1.5" stroke-opacity="null" fill-opacity="null" d="m285.76066,68.71236c-75.66389,0 -137,61.33611 -137,137c0,75.66389 61.33611,137 137,137c75.66389,0 137,-61.33611 137,-137c0,-75.66389 -61.33611,-137 -137,-137zm107.79772,150.10238c0.00943,0.01885 0.0377,0.01885 0.04713,0.0377c-0.20738,1.76269 -0.50901,3.48768 -0.80122,5.2221c-0.14139,-0.11311 -0.32049,-0.23565 -0.44303,-0.33934c-0.9709,-0.84836 -2.39425,-1.20655 -2.99752,-1.08401c-1.47991,0.30164 2.15859,2.87498 2.51679,3.22375c0.08484,0.08484 0.29221,0.28279 0.58442,0.54672c-9.69953,50.07183 -53.81402,88.0216 -106.69485,88.0216c-38.86411,0 -72.92087,-20.54906 -92.15027,-51.28781c1.15942,-0.15082 2.26228,-0.15082 2.63933,-0.71639c0.48073,-0.72582 0.96147,-2.27171 1.67786,-3.12006c0.72582,-0.83893 1.55532,-2.15859 1.19712,-2.75244c-0.36762,-0.60328 0.95204,-3.2426 0.8295,-3.94957c-0.12254,-0.71639 -1.19712,-2.4131 0.60328,-3.83645s3.71391,-3.6008 3.83645,-4.18522c0.11311,-0.59385 1.56474,-3.12006 1.43278,-4.31719c-0.11311,-1.19712 -1.43278,-2.63933 -2.26228,-2.99752c-0.84836,-0.34877 -2.63933,-0.47131 -3.35572,-1.42335c-0.72582,-0.9709 -2.75244,-1.91351 -3.46883,-1.67786c-0.71639,0.23565 -1.92294,0.47131 -2.87498,-0.14139c-0.96147,-0.58442 -2.51679,-1.31024 -3.11064,-1.78155c-0.6127,-0.47131 -2.15859,-0.8295 -2.87498,-0.8295c-0.72582,0 -0.6127,-0.49016 -1.67786,0.95204c-1.07458,1.4422 0,1.92294 -1.92294,1.66843c-1.92294,-0.2168 0.23565,-0.33934 1.32909,-1.78155c1.06516,-1.43278 -0.12254,-2.28113 -1.32909,-1.91351c-1.1877,0.35819 -0.35819,1.08401 -2.27171,1.4422c-1.91351,0.33934 -1.91351,-0.84836 -0.71639,-1.08401s3.34629,-1.31024 3.34629,-1.79097c0,-0.48073 -0.23565,-1.8004 -1.19712,-1.8004s-0.72582,-1.1877 -2.15859,-2.74302c-0.86721,-0.95204 -1.84753,-1.54589 -2.81843,-1.92294c-0.84836,-5.45775 -1.41393,-11.00034 -1.41393,-16.69375c0,-26.80804 9.79379,-51.33494 25.9314,-70.3004c0.22623,-0.18852 0.45246,-0.32049 0.65041,-0.33934c0.7918,-0.08484 2.92211,-0.23565 4.80735,-0.55614c1.90409,-0.32049 3.94014,-1.51761 4.6094,-1.4422c0.65041,0.07541 2.27171,0.07541 1.75327,-0.3959c-0.52787,-0.53729 -1.26311,-1.64958 -2.35654,-1.64958s-0.07541,-1.75327 0.2168,-1.75327c0.28279,0 1.75327,0.23565 1.67786,1.03688c-0.06598,0.80122 0.44303,1.82868 1.89466,1.51761c1.47048,-0.32049 1.24425,-1.52704 0.96147,-1.8381c-0.30164,-0.32049 -0.51844,-1.12171 -0.80122,-1.67786c-0.29221,-0.56557 -0.2168,-1.28196 1.31966,-1.4422c1.52704,-0.15082 3.6385,0.63155 3.56309,-0.64098s0,-2.63933 0.4336,-3.35572c0.44303,-0.70696 1.39507,-1.19712 0.87663,-1.43278c-0.49959,-0.23565 -1.15942,0.32049 -1.67786,-0.87663c-0.50901,-1.19712 0.44303,-2.07376 1.01803,-2.55449c0.18852,-0.14139 0.63155,-0.56557 1.16885,-1.05573c17.73063,-12.55566 39.31657,-20.01177 62.65577,-20.01177c30.28629,0 57.70703,12.47083 77.42659,32.5203c-0.07541,0.20738 -0.09426,0.49016 -0.29221,0.52787c-0.72582,0.12254 -1.56474,0.59385 -1.68728,-0.48073c-0.12254,-1.07458 -0.12254,-3.12006 -0.96147,-1.91351c-0.83893,1.19712 -1.19712,1.19712 -1.19712,1.8004c0,0.59385 0.71639,1.19712 0.48073,2.27171c-0.24508,1.07458 -0.24508,1.8004 0.13197,1.8004c0.33934,0 1.1877,-1.08401 2.25286,-1.32909c1.09344,-0.23565 3.00695,-0.8295 3.12949,0.24508c0.12254,1.08401 1.31024,1.43278 0.12254,1.91351c-1.20655,0.48073 -2.51679,0.24508 -2.76187,-0.48073c-0.23565,-0.72582 -1.07458,-0.72582 -1.91351,-0.12254c-0.8295,0.59385 -2.6299,2.75244 -2.6299,2.75244s-2.88441,1.31024 -3.23318,1.07458c-0.37705,-0.23565 0.95204,-1.55532 1.91351,-2.14917c0.96147,-0.60328 1.67786,-1.92294 1.31966,-2.28113c-0.35819,-0.35819 -0.8295,-2.6299 -0.59385,-3.23318c0.23565,-0.59385 1.31024,-1.43278 0.12254,-2.03605c-1.19712,-0.59385 -2.04548,-1.31966 -2.99752,-1.67786s-2.03605,1.43278 -2.87498,1.92294c-0.83893,0.48073 -0.71639,1.07458 -1.8004,1.19712c-1.07458,0.12254 -1.78155,1.55532 0,2.39425c1.8004,0.83893 2.40367,1.43278 1.92294,1.92294c-0.48073,0.48073 -2.51679,-0.23565 -2.51679,-0.23565s-1.55532,-0.71639 -2.52621,-0.71639c-0.95204,0 -2.15859,-0.59385 -3.11064,-0.71639c-0.96147,-0.12254 -2.88441,-0.12254 -3.34629,0.35819c-0.48073,0.48073 -1.68728,1.91351 -2.63933,1.43278c-0.95204,-0.48073 -0.95204,-0.96147 -2.27171,-0.48073c-1.31966,0.48073 -2.6299,-0.35819 -3.34629,0.35819c-0.72582,0.71639 -0.12254,0.71639 -2.40367,0c-2.27171,-0.71639 -1.78155,0.48073 -3.94957,0.83893s-3.46883,-0.35819 -4.07211,0.35819c-0.60328,0.72582 -1.4422,2.04548 -1.79097,1.19712c-0.35819,-0.8295 1.1877,-2.27171 0.58442,-2.75244c-0.58442,-0.48073 -3.11064,-0.23565 -3.45941,0.12254c-0.36762,0.35819 -0.13197,1.67786 0.10369,2.15859c0.24508,0.47131 0.60328,2.39425 -0.10369,2.03605c-0.72582,-0.35819 -0.60328,-1.56474 -1.32909,-1.43278c-0.71639,0.12254 -1.55532,0.48073 -1.91351,0.72582c-0.35819,0.23565 -1.8004,0.23565 -2.15859,0.71639c-0.34877,0.48073 0.13197,1.8004 -0.48073,1.91351c-0.59385,0.12254 -1.07458,0.60328 -2.39425,-0.23565c-1.31966,-0.83893 -1.31966,-0.35819 -1.67786,-0.11311c-0.35819,0.23565 -2.03605,1.19712 -2.15859,0.11311c-0.12254,-1.07458 0.23565,-1.43278 -0.83893,-2.15859c-1.08401,-0.71639 -0.24508,-0.71639 1.19712,-0.23565c1.43278,0.47131 3.23318,0.70696 5.86308,-0.12254c2.63933,-0.83893 3.72334,-1.19712 2.63933,-1.67786c-1.08401,-0.47131 -2.15859,-0.95204 -3.82703,-1.19712c-1.68728,-0.23565 -3.95899,-0.23565 -6.59832,-1.19712c-2.6299,-0.96147 -3.23318,-1.31966 -4.30776,-1.55532c-1.08401,-0.24508 -7.66348,-1.31966 -10.67043,-0.83893c-2.9881,0.48073 -11.24542,2.63933 -11.73559,2.99752s-1.20655,1.79097 -2.75244,2.99752c-1.55532,1.19712 -4.4303,3.94957 -6.71144,4.4303c-2.27171,0.48073 -4.91104,2.39425 -4.91104,2.87498c0,0.48073 0.95204,2.28113 0.71639,2.63933c-0.23565,0.35819 0.47131,2.15859 1.8004,2.63933c1.31024,0.47131 3.59137,0.35819 3.70449,-0.36762c0.13197,-0.71639 1.92294,-2.27171 2.04548,-1.19712c0.12254,1.08401 1.31966,2.75244 1.07458,3.46883c-0.23565,0.72582 0,1.4422 0.84836,1.31966c0.8295,-0.11311 5.26923,-1.07458 5.26923,-1.07458s1.4422,-0.60328 1.19712,-1.56474c-0.24508,-0.95204 1.56474,-2.27171 1.91351,-2.6299c0.35819,-0.35819 1.67786,-1.8004 0.13197,-2.27171c-1.57417,-0.48073 -2.76187,-0.60328 -1.08401,-2.03605s2.75244,0 4.91104,-2.15859c2.15859,-2.15859 -0.48073,-2.75244 1.8004,-2.87498c2.27171,-0.12254 4.67538,-0.23565 4.18522,0.48073c-0.47131,0.71639 -3.22375,2.28113 -4.7885,2.99752c-1.56474,0.72582 -1.31966,2.03605 -0.71639,2.75244c0.59385,0.71639 0.84836,2.39425 1.92294,2.15859c1.06516,-0.23565 2.39425,-1.07458 3.58195,-0.95204c1.20655,0.11311 3.61022,-0.12254 3.95899,-0.12254c0.36762,0 2.03605,1.67786 1.07458,1.91351c-0.95204,0.23565 -2.15859,0.12254 -4.19465,0.23565c-2.02663,0.12254 -4.29833,0.12254 -4.29833,0.48073c0,0.36762 2.75244,1.19712 1.79097,1.8004c-0.96147,0.59385 -1.91351,-0.12254 -3.12006,-0.24508c-1.19712,-0.11311 -1.91351,1.56474 -2.27171,2.51679c-0.36762,0.96147 0.59385,2.63933 -1.19712,2.03605c-1.8004,-0.59385 -3.12006,-0.59385 -3.59137,-0.35819c-0.48073,0.23565 -1.91351,0.71639 -3.12006,1.07458c-1.1877,0.35819 -0.71639,-0.59385 -2.28113,-0.59385c-1.54589,0 -1.54589,0 -1.54589,0l-0.9709,0.12254c0,0 -0.95204,-0.59385 -1.07458,-1.55532c-0.12254,-0.96147 0.47131,-2.03605 -0.12254,-2.27171c-0.60328,-0.24508 -2.75244,0.11311 -3.11064,0.8295c-0.35819,0.71639 -0.72582,2.03605 -0.24508,2.63933c0.49016,0.59385 1.92294,1.79097 0.60328,1.43278c-1.31966,-0.35819 -2.9881,-0.48073 -3.94957,0.24508c-0.95204,0.71639 -2.6299,2.27171 -2.6299,2.27171s-2.99752,0.23565 -2.99752,0.96147c0,0.72582 0,1.67786 -1.07458,1.8004c-1.08401,0.12254 -2.52621,0.47131 -3.95899,0.71639c-1.4422,0.23565 -1.31024,0.8295 -2.9881,0.96147s-1.92294,0.83893 -0.35819,1.07458c1.55532,0.23565 3.94014,1.19712 4.06268,2.27171c0.13197,1.07458 -0.12254,2.28113 -0.71639,3.35572c-0.40533,0.74467 -2.87498,0.24508 -4.31719,0.24508c-1.43278,0 -4.29833,-0.48073 -5.50489,0c-1.19712,0.48073 -0.96147,2.87498 -0.60328,3.94957c0.36762,1.07458 -0.11311,1.67786 -0.59385,2.03605c-0.48073,0.35819 -0.6127,1.43278 0,1.92294c0.59385,0.48073 1.07458,1.55532 1.56474,1.67786c0.48073,0.12254 2.02663,-0.35819 2.6299,0.23565c0.60328,0.60328 1.19712,2.03605 1.55532,1.67786c0.36762,-0.35819 0.83893,-1.91351 1.4422,-1.56474c0.60328,0.36762 2.03605,-0.11311 3.12006,-0.23565s1.66843,-1.31966 2.75244,-1.92294c1.07458,-0.59385 0.47131,-0.59385 0.12254,-1.31966c-0.35819,-0.71639 1.07458,-1.55532 1.92294,-2.39425c0.8295,-0.83893 2.38482,-0.12254 2.75244,-1.08401c0.35819,-0.96147 0.48073,-2.6299 1.42335,-2.51679c0.9709,0.12254 2.29056,0.71639 3.12006,0.71639c0.83893,0 2.6299,-1.31966 3.12949,-1.55532c0.47131,-0.23565 2.27171,-0.12254 2.51679,0.96147c0.23565,1.07458 2.27171,2.39425 2.75244,2.6299c0.48073,0.23565 3.59137,1.19712 4.08153,1.55532c0.47131,0.35819 1.1877,1.4422 1.43278,2.39425c0.23565,0.96147 1.07458,0.96147 1.20655,0.12254c0.11311,-0.83893 -0.6127,-2.39425 0.23565,-2.28113c0.8295,0.12254 1.8004,-0.24508 1.8004,-0.24508s-2.29056,-1.55532 -3.12006,-1.91351c-0.8295,-0.35819 -2.40367,-1.07458 -3.12006,-2.27171c-0.71639,-1.19712 -2.51679,-1.4422 -2.39425,-2.6299c0.12254,-1.19712 1.8004,-0.48073 2.75244,0.48073c0.96147,0.96147 3.35572,2.27171 4.19465,3.11064c0.8295,0.83893 2.15859,1.19712 2.51679,2.28113c0.36762,1.07458 1.43278,2.27171 1.79097,2.75244c0.35819,0.48073 1.55532,3.12006 1.92294,3.71391c0.35819,0.59385 1.55532,-0.11311 2.15859,-0.59385c0.59385,-0.48073 1.68728,-0.71639 1.8004,-1.67786c0.12254,-0.96147 -1.4422,-1.67786 -1.91351,-2.03605c-0.48073,-0.35819 1.19712,-0.71639 1.8004,-1.19712c0.59385,-0.47131 1.66843,-1.31966 2.14917,-0.59385c0.48073,0.72582 0.24508,3.59137 0.48073,4.07211c0.23565,0.48073 2.6299,1.19712 3.12006,1.8004c0.47131,0.59385 2.51679,0.83893 2.86556,0.48073c0.36762,-0.35819 2.28113,0.24508 2.77129,0.35819c0.46188,0.12254 1.90409,-0.23565 2.86556,-0.47131c0.9709,-0.23565 1.92294,-0.96147 1.8004,0.59385c-0.12254,1.55532 -0.48073,3.94957 -1.68728,5.14669c-1.19712,1.19712 -0.71639,1.8004 -1.90409,1.8004c-0.56557,0 -1.06516,0 -1.47048,0.19795c-0.38647,-0.6127 -0.92376,-1.10286 -1.64958,-0.91434c-1.43278,0.35819 -3.2426,0.35819 -4.4303,1.79097c-1.20655,1.4422 -1.67786,1.55532 -1.92294,1.07458c-0.23565,-0.48073 3.47826,-2.51679 2.9881,-3.12006c-0.47131,-0.59385 -3.34629,-0.35819 -4.91104,-0.35819c-1.56474,0 -2.87498,-0.96147 -4.08153,-1.19712c-1.1877,-0.23565 -2.75244,1.19712 -3.94014,2.39425c-1.20655,1.19712 -2.03605,0.35819 -3.12006,0.35819c-1.08401,0 -3.12006,-1.55532 -3.12006,-1.55532s-2.03605,-0.83893 -2.87498,-0.83893c-0.8295,0 -2.51679,-1.55532 -2.99752,-1.55532c-0.47131,0 -1.79097,-1.08401 -0.8295,-1.56474c0.95204,-0.47131 1.90409,0.48073 0.95204,-2.15859c-0.95204,-2.6299 -3.11064,-2.03605 -3.94957,-1.67786c-0.8295,0.36762 -6.82455,0.23565 -7.30528,0.23565c-0.48073,0 -3.94957,1.19712 -5.02415,1.67786c-1.09344,0.48073 -2.99752,1.08401 -3.47826,1.31966c-0.48073,0.23565 -2.99752,-0.48073 -4.08153,0.12254c-1.42335,0.7918 -2.74302,2.03605 -3.11064,2.03605c-0.35819,0 -1.4422,0.83893 -2.15859,2.63933c-0.72582,1.79097 0.12254,3.34629 -1.20655,3.94957c-1.31024,0.59385 -3.71391,1.92294 -4.66596,2.87498c-0.96147,0.95204 -2.15859,4.31719 -3.34629,5.87251c-1.19712,1.55532 0,2.9881 0.23565,3.94957c0.23565,0.95204 1.07458,2.75244 -0.23565,4.43973c-1.31966,1.67786 -1.19712,2.50736 -1.8004,2.6299c-0.59385,0.12254 0.59385,0.59385 0.8295,1.79097c0.23565,1.20655 -1.07458,2.40367 1.20655,3.47826c2.27171,1.06516 3.34629,2.04548 3.94014,3.45941c0.60328,1.4422 3.6008,3.83645 3.6008,3.83645s2.15859,1.93237 3.2426,2.76187c1.07458,0.83893 1.43278,0.35819 1.66843,-0.47131c0.23565,-0.84836 1.67786,-0.98032 3.34629,-0.98032c1.67786,0 2.87498,0.37705 4.55284,0.13197c1.67786,-0.23565 3.35572,-1.32909 3.95899,-1.56474c0.59385,-0.23565 2.6299,-1.54589 4.17579,-0.59385c1.56474,0.9709 1.32909,2.27171 2.16802,3.12949c0.8295,0.8295 2.26228,0.34877 3.34629,-0.48073c1.07458,-0.84836 0.60328,-0.49016 1.91351,0.23565c1.31966,0.70696 1.92294,1.42335 0.72582,2.51679c-1.20655,1.06516 -0.48073,2.76187 -1.20655,4.4303c-0.71639,1.67786 -0.59385,1.91351 0.72582,2.62048c1.31966,0.71639 3.71391,5.16554 4.4303,6.0139c0.72582,0.8295 -0.23565,3.22375 0.60328,4.66596c0.83893,1.42335 1.67786,2.39425 0.72582,3.12006c-0.9709,0.70696 -2.63933,2.03605 -2.75244,4.4303s0.48073,4.06268 0.96147,4.91104s1.66843,3.12006 2.27171,3.94957c0.60328,0.83893 1.31966,2.87498 1.43278,4.19465c0.12254,1.31966 -0.22623,2.88441 0.36762,3.59137c0.60328,0.71639 0.96147,1.8004 2.03605,2.75244c1.08401,0.9709 1.43278,2.99752 1.43278,2.99752s0.36762,0.83893 0.48073,2.15859c0.11311,1.31966 0.23565,2.14917 1.43278,2.75244c1.1877,0.59385 2.02663,0.71639 2.63933,0.12254c0.59385,-0.59385 3.59137,-0.72582 5.14669,-0.59385c1.55532,0.12254 3.34629,-0.70696 4.91104,-1.79097s3.83645,-3.94957 4.67538,-4.7885c0.83893,-0.84836 2.75244,-2.40367 2.52621,-3.35572c-0.23565,-0.95204 -0.72582,-1.91351 0.22623,-2.39425c0.96147,-0.49016 3.2426,-1.43278 3.35572,-2.15859c0.12254,-0.72582 -0.84836,-3.72334 -1.08401,-4.30776c-0.22623,-0.60328 0.60328,-1.69671 1.55532,-2.88441c0.9709,-1.20655 3.96842,-2.03605 4.43973,-2.51679c0.48073,-0.49959 1.8004,-2.51679 2.04548,-4.08153c0.22623,-1.57417 -0.48073,-3.47826 0,-4.30776c0.47131,-0.84836 0.12254,-1.55532 -0.9709,-2.52621c-1.07458,-0.96147 -0.83893,-3.83645 -1.19712,-4.30776c-0.34877,-0.48073 -0.12254,-3.00695 0.59385,-3.25203c0.71639,-0.2168 2.28113,-2.6299 3.2426,-3.70449c0.96147,-1.07458 3.71391,-4.4303 5.03358,-4.67538c1.31024,-0.23565 3.34629,-2.15859 3.46883,-3.23318c0.12254,-1.08401 3.58195,-5.15612 3.71391,-5.98562c0.12254,-0.84836 1.56474,-3.95899 0.96147,-4.68481c-0.58442,-0.71639 -5.26923,1.08401 -5.86308,1.32909c-0.60328,0.23565 -2.27171,1.19712 -4.20407,1.06516c-1.90409,-0.12254 -1.07458,-1.66843 -1.19712,-2.39425c-0.11311,-0.71639 -2.14917,-3.46883 -2.6299,-3.59137c-0.48073,-0.11311 -1.91351,-1.56474 -2.51679,-2.9881c-0.59385,-1.4422 -1.43278,-3.23318 -2.39425,-4.31719c-0.96147,-1.07458 -1.55532,-3.58195 -2.52621,-5.26923c-0.95204,-1.67786 -1.78155,-3.83645 -2.6299,-5.39177c-0.19795,-0.38647 -0.42418,-0.74467 -0.63155,-1.10286c1.11229,-0.27336 2.72416,-0.77295 2.92211,-0.08484c0.22623,0.8295 1.55532,2.6299 1.79097,3.94957s1.55532,0.83893 1.67786,2.03605c0.13197,1.20655 1.31966,4.08153 1.79097,4.4303c0.49016,0.35819 2.63933,2.28113 2.99752,2.99752c0.35819,0.71639 0.83893,1.67786 1.19712,3.47826c0.35819,1.79097 0.71639,4.18522 1.68728,4.54342c0.96147,0.35819 4.18522,-0.60328 4.7885,-0.96147s4.54342,-2.28113 5.98562,-2.40367c1.4422,-0.11311 1.68728,-1.08401 3.46883,-1.43278c1.8004,-0.35819 3.12006,-1.66843 4.31719,-2.63933c1.19712,-0.95204 2.63933,-3.34629 3.11064,-4.18522c0.49016,-0.8295 1.68728,-1.43278 1.08401,-2.38482c-0.59385,-0.9709 -3.12006,-2.39425 -4.08153,-2.52621c-0.96147,-0.11311 -0.83893,-1.67786 -1.43278,-1.67786s-0.48073,0.8295 -1.67786,1.4422c-1.19712,0.59385 -2.40367,1.79097 -3.2426,1.55532s0.24508,-0.83893 -1.06516,-1.91351s-1.80983,-1.31966 -1.80983,-2.14917c0,-0.83893 -2.62048,-2.40367 -2.86556,-3.6008c-0.24508,-1.19712 1.79097,-2.87498 2.39425,-1.79097c0.59385,1.07458 1.08401,2.75244 2.6299,3.46883c1.55532,0.71639 2.99752,1.92294 3.72334,2.15859c0.71639,0.23565 2.51679,-1.31966 3.11064,-1.07458c0.59385,0.22623 1.8004,2.38482 2.88441,2.75244c1.06516,0.35819 4.66596,0.48073 5.26923,0.48073s3.11064,0.12254 3.59137,-0.59385c0.48073,-0.71639 0.83893,-0.71639 1.4422,-0.71639c0.58442,0 1.66843,2.15859 2.51679,2.39425c0.83893,0.23565 2.39425,0.12254 2.27171,1.68728c-0.11311,1.54589 0.71639,2.87498 1.55532,2.9881c0.84836,0.11311 2.76187,-1.8004 2.76187,-1.8004s0,2.99752 -0.11311,4.08153c-0.13197,1.06516 1.31024,5.03358 1.31024,5.03358s1.79097,3.70449 2.27171,4.54342s2.51679,3.34629 2.51679,4.4303c0,1.08401 0.23565,2.76187 0.9709,2.76187c0.71639,0 1.43278,-1.91351 2.26228,-3.12006c0.85778,-1.1877 1.09344,-2.87498 1.4422,-4.07211c0.35819,-1.19712 0.35819,-3.35572 0.35819,-4.18522c0,-0.84836 0.70696,-1.56474 2.40367,-2.28113c1.67786,-0.71639 2.86556,-2.75244 4.29833,-3.83645c1.4422,-1.08401 1.32909,-2.87498 4.20407,-2.87498c2.87498,0 2.62048,0 3.34629,-0.72582c0.71639,-0.71639 1.42335,-1.19712 1.79097,0.12254c0.35819,1.31966 2.39425,3.23318 2.75244,3.71391c0.35819,0.49016 1.07458,1.8004 0.9709,3.2426c-0.12254,1.43278 0.11311,3.11064 0.70696,3.11064s1.8004,-2.03605 1.8004,-2.03605s2.6299,-1.78155 2.51679,0.12254c-0.13197,1.91351 0.23565,3.94957 0.23565,5.13726c0,0.49959 0.3959,1.27253 0.8295,1.9795c-0.04713,0.55614 -0.0377,1.12171 -0.08484,1.67786c-0.85778,0.22623 -0.86721,1.86638 -0.40533,2.46023l0.00001,-0.00003zm-66.49222,-50.2038c0.71639,0.47131 0.96147,1.19712 1.43278,1.91351c0.49016,0.71639 1.31966,0.47131 1.91351,1.07458c0.59385,0.60328 -1.67786,1.31966 -0.70696,2.03605c0.95204,0.72582 1.42335,3.59137 1.55532,4.31719c0.12254,0.71639 -2.6299,1.07458 -3.47826,0.96147c-0.83893,-0.12254 -3.33687,-0.96147 -4.19465,-1.19712c-0.83893,-0.24508 -1.31024,-3.23318 -0.23565,-3.12006c1.09344,0.12254 1.32909,-0.23565 2.51679,-1.31024c1.20655,-1.08401 -1.78155,-1.56474 -2.62048,-1.8004c-0.83893,-0.23565 -2.52621,-2.87498 -3.12006,-3.71391c-0.58442,-0.83893 -0.13197,-2.14917 1.32909,-3.12006c0.71639,-0.48073 2.6299,0.59385 3.59137,0c0.95204,-0.59385 1.91351,-1.31966 2.27171,-1.55532c0.36762,-0.23565 2.76187,0.35819 3.11064,1.07458c0.36762,0.71639 1.8004,1.8004 1.32909,2.15859c-0.49016,0.35819 -2.64875,0.71639 -3.35572,0c-0.70696,-0.72582 -2.40367,0.11311 -2.52621,1.43278c-0.13197,1.32909 0.48073,0.36762 1.1877,0.84836l-0.00001,0zm-33.05759,2.03605c-0.72582,-0.23565 0.23565,-1.67786 0.96147,-2.15859c0.70696,-0.48073 1.54589,-1.67786 2.27171,-2.87498c0.71639,-1.19712 1.67786,-1.31966 2.27171,-1.19712c0.59385,0.12254 1.91351,2.27171 2.27171,2.99752c0.35819,0.71639 1.55532,-0.24508 2.04548,-0.48073c0.47131,-0.23565 1.19712,-0.96147 1.31966,-1.55532s1.19712,-0.96147 2.39425,-0.96147s0.12254,0.96147 -0.71639,1.19712c-0.84836,0.23565 -0.35819,0.72582 1.06516,1.19712c1.4422,0.48073 2.76187,1.8004 4.32661,2.6299c1.55532,0.83893 1.79097,2.51679 0.8295,2.75244c-0.95204,0.23565 -3.82703,0.48073 -4.91104,0.35819c-1.07458,-0.12254 -2.39425,-1.19712 -3.94957,-1.4422c-1.55532,-0.23565 -3.47826,-0.12254 -4.08153,0.72582s-2.75244,0.47131 -3.72334,0.47131c-0.96147,0 -2.14917,1.19712 -2.38482,0.72582c0.00943,0.00943 0.72582,-2.13974 0.00943,-2.38482l0,-0.00001zm4.07211,-26.60066c0.59385,-1.67786 3.94957,0.35819 3.34629,1.19712c-0.59385,0.84836 -3.75162,-0.05656 -3.34629,-1.19712zm4.66596,86.02326c0.59385,0.96147 -1.31966,4.06268 -2.39425,3.83645c-1.06516,-0.25451 -0.71639,-2.99752 -0.35819,-3.6008c0.35819,-0.60328 2.44138,-0.75409 2.75244,-0.23565zm-43.48294,-55.70868c0.23565,-0.48073 -0.36762,-1.4422 -1.19712,-0.12254c-0.28279,0.46188 0.96147,0.60328 1.19712,0.12254zm71.86514,-43.72802c1.32909,0.71639 3.19547,1.0086 4.08153,0.12254c0.71639,-0.71639 0.12254,-1.92294 -0.47131,-2.03605c-0.60328,-0.12254 -0.98032,-1.08401 0.58442,-1.91351c1.55532,-0.83893 3.23318,-1.92294 5.03358,-2.15859c1.79097,-0.23565 5.86308,-0.35819 7.29586,0c1.43278,0.36762 3.6008,-1.56474 4.19465,-2.39425s-1.91351,-1.43278 -2.6299,-0.48073c-0.72582,0.96147 -4.18522,0.71639 -4.91104,0.48073c-0.71639,-0.23565 -6.46635,0.96147 -7.65405,0.96147c-1.20655,0 -1.68728,1.43278 -3.35572,2.15859c-1.68728,0.71639 -3.95899,1.8004 -4.79792,2.15859c-0.8295,0.35819 -1.66843,1.79097 -0.95204,2.03605c0.71639,0.23565 2.27171,0.34877 3.58195,1.06516l-0.00001,0zm-62.882,43.72802c0.60328,-0.83893 -0.48073,-2.04548 -1.07458,-2.04548c-1.13114,0 -1.67786,1.8004 -0.9709,2.39425c0.72582,0.6127 1.4422,0.49016 2.04548,-0.34877zm5.39177,3.23318c0.60328,0.23565 1.07458,0.96147 1.55532,1.07458c0.49016,0.12254 2.04548,0 1.57417,-1.19712s-1.57417,-1.19712 -1.92294,-1.19712c-0.35819,0 -1.91351,-0.35819 -2.51679,0c-0.44303,0.26393 0.70696,1.08401 1.31024,1.31966zm-32.10555,-19.40849c0.95204,0.12254 2.04548,-0.59385 2.87498,-0.95204c0.8295,-0.35819 2.03605,-1.07458 2.03605,-2.15859c0,-1.07458 -0.23565,-2.03605 -0.72582,-2.51679c-0.48073,-0.48073 -1.31966,-0.60328 -2.03605,-0.48073c-1.08401,0.18852 -1.19712,1.31966 -1.91351,1.31966c-0.71639,0 -1.55532,0.23565 -1.31966,1.07458s0.72582,1.43278 0,1.79097c-0.71639,0.36762 0.11311,1.80983 1.08401,1.92294zm5.87251,-5.14669c1.19712,0.48073 3.71391,0.96147 2.75244,1.4422c-0.96147,0.48073 -2.63933,1.79097 -2.87498,2.51679s2.03605,1.4422 2.03605,1.4422s-0.72582,0.83893 -0.12254,1.07458c0.59385,0.23565 0.96147,-0.83893 1.91351,-0.83893c0.95204,0 2.86556,0.59385 3.82703,0.59385c0.9709,0 2.51679,-1.31966 2.39425,-2.15859c-0.12254,-0.83893 -1.31966,-2.15859 -2.39425,-2.63933c-1.06516,-0.48073 -2.27171,-2.63933 -2.9881,-3.12006c-0.71639,-0.48073 0.71639,-1.67786 -0.12254,-2.51679c-0.84836,-0.83893 -1.4422,-0.71639 -2.40367,-1.31966c-0.96147,-0.59385 -1.8004,0.12254 -2.39425,0.83893c-0.59385,0.71639 -1.31966,-0.12254 -2.04548,0.11311c-0.96147,0.32992 -0.59385,1.56474 -0.11311,2.15859c0.49016,0.6127 1.33852,1.93237 2.53564,2.4131l0,0.00001zm120.63616,63.96601c-0.78237,0.34877 -1.4422,4.4303 0,4.91104c1.43278,0.49016 2.27171,-1.90409 1.8004,-2.51679c-0.49016,-0.58442 -0.72582,-2.87498 -1.8004,-2.39425zm-43.50179,30.78588c-1.49876,-0.42418 -1.66843,1.56474 -2.86556,2.88441c-1.20655,1.32909 -2.51679,2.39425 -2.9881,2.27171c-0.49016,-0.12254 -3.12006,0.83893 -2.28113,2.6299c0.83893,1.8004 0.71639,3.6008 -0.12254,4.44915c-0.83893,0.8295 0.71639,3.22375 0.49016,4.54342c-0.24508,1.31024 0.34877,2.15859 2.02663,2.15859s2.28113,-0.60328 2.99752,-2.15859c0.71639,-1.56474 0.8295,-3.12006 1.54589,-4.4303c0.72582,-1.32909 1.32909,-4.09096 1.68728,-4.80735c0.35819,-0.70696 1.07458,-2.97867 0.96147,-4.30776c-0.13197,-1.30081 -0.60328,-2.99752 -1.45163,-3.23318l0.00001,0zm-91.65068,-109.92803c-0.65041,-0.56557 -2.15859,-0.96147 -2.88441,-1.03688c-0.71639,-0.07541 -1.43278,0.56557 -3.0258,0.56557c-1.5836,0 -2.6299,0.63155 -3.27088,0c-0.64098,-0.64098 -3.28973,-0.96147 -3.53481,-0.56557c-0.32049,0.53729 -0.95204,0.55614 -0.32049,1.67786c0.65041,1.11229 1.13114,1.75327 1.68728,1.67786s2.46966,-0.16024 2.71474,0.48073c0.23565,0.64098 0.88606,1.19712 2.234,0.80122c1.3668,-0.3959 2.47908,-0.64098 2.79015,-1.12171c0.31106,-0.48073 2.47908,-0.55614 2.47908,-0.55614s1.76269,-1.3668 1.13114,-1.92294z" id="svg_3"/>
    </g>
</svg>
